<svg width="41" height="42" viewBox="0 0 41 42" fill="none" xmlns="http://www.w3.org/2000/svg">
<path id="Vector" d="M41 20.8076C41 26.2446 38.8402 31.4588 34.9957 35.3033C31.1512 39.1478 25.9369 41.3076 20.5 41.3076C15.0631 41.3076 9.84881 39.1478 6.00431 35.3033C2.15982 31.4588 0 26.2446 0 20.8076C0 15.3707 2.15982 10.1564 6.00431 6.31193C9.84881 2.46743 15.0631 0.307617 20.5 0.307617C25.9369 0.307617 31.1512 2.46743 34.9957 6.31193C38.8402 10.1564 41 15.3707 41 20.8076ZM21.2354 15.4417C19.2418 16.272 15.2546 17.9889 9.27881 20.5924C8.31019 20.9767 7.80025 21.356 7.75413 21.725C7.67725 22.3477 8.45881 22.5937 9.52225 22.9294L9.97069 23.0703C11.0162 23.4111 12.4256 23.8083 13.1559 23.8237C13.8221 23.8391 14.5627 23.5674 15.3801 23.0037C20.9638 19.2342 23.8466 17.3303 24.026 17.2893C24.1541 17.2586 24.3335 17.2227 24.4514 17.3303C24.5718 17.4354 24.559 17.6378 24.5462 17.6916C24.4693 18.0222 21.402 20.8717 19.8158 22.3477C19.3212 22.8089 18.9702 23.1344 18.8984 23.2087C18.7404 23.3701 18.5798 23.529 18.4167 23.6853C17.4429 24.6232 16.7152 25.3253 18.4551 26.4733C19.2931 27.0268 19.9644 27.4804 20.6332 27.9365C21.361 28.4336 22.0887 28.9282 23.0317 29.5483C23.2701 29.7021 23.5007 29.8686 23.7236 30.0275C24.5718 30.6322 25.338 31.1755 26.2784 31.0884C26.8268 31.0371 27.3931 30.5246 27.6801 28.9871C28.3592 25.3561 29.6943 17.4917 30.0018 14.2502C30.0205 13.9807 30.0093 13.71 29.9684 13.443C29.9443 13.2275 29.84 13.029 29.6763 12.8869C29.4431 12.726 29.1652 12.6426 28.8819 12.6486C28.1132 12.6614 26.9267 13.074 21.2354 15.4417Z" fill="#231819"/>
</svg>
