<svg width="40" height="41" viewBox="0 0 40 41" fill="none" xmlns="http://www.w3.org/2000/svg">
<path id="Vector" d="M2.81161 3.61922C0 6.43101 0 10.9569 0 20.0076V21.6076C0 30.6584 0 35.1843 2.81161 37.9959C5.62339 40.8076 10.1493 40.8076 19.2 40.8076H20.8C29.8508 40.8076 34.3767 40.8076 37.1883 37.9959C40 35.1843 40 30.6584 40 21.6076V20.0076C40 10.9568 40 6.43092 37.1883 3.61922C34.3767 0.807617 29.8508 0.807617 20.8 0.807617H19.2C10.1492 0.807617 5.6233 0.807617 2.81161 3.61922ZM6.75 12.9744H11.3167C11.4667 20.6077 14.8333 23.841 17.5 24.5077V12.9743H21.8V19.5576C24.4333 19.2743 27.2 16.2743 28.1333 12.9743H32.4333C32.0815 14.6858 31.3804 16.3062 30.3738 17.7343C29.3672 19.1625 28.0768 20.3676 26.5833 21.2743C28.2509 22.1022 29.7238 23.2746 30.9046 24.714C32.0855 26.1534 32.9474 27.8271 33.4333 29.6243H28.7C28.2638 28.0632 27.3763 26.6656 26.1487 25.6071C24.9212 24.5485 23.4083 23.8762 21.8 23.6743V29.6243H21.2833C12.1667 29.6243 6.9667 23.3743 6.75 12.9743V12.9744Z" fill="#231819"/>
</svg>
