<svg width="39" height="40" viewBox="0 0 39 40" fill="none" xmlns="http://www.w3.org/2000/svg">
<path d="M28.5 0.307617H10.5C7.71614 0.310595 5.04715 1.4178 3.07867 3.38629C1.11018 5.35477 0.00297792 8.02376 0 10.8076V28.8076C0.00297792 31.5915 1.11018 34.2605 3.07867 36.229C5.04715 38.1974 7.71614 39.3046 10.5 39.3076H28.5C31.2839 39.3046 33.9528 38.1974 35.9213 36.229C37.8898 34.2605 38.997 31.5915 39 28.8076V10.8076C38.997 8.02376 37.8898 5.35477 35.9213 3.38629C33.9528 1.4178 31.2839 0.310595 28.5 0.307617ZM19.5 28.8076C17.72 28.8076 15.9799 28.2798 14.4999 27.2908C13.0198 26.3019 11.8663 24.8963 11.1851 23.2518C10.5039 21.6072 10.3257 19.7976 10.6729 18.0518C11.0202 16.306 11.8774 14.7023 13.136 13.4437C14.3947 12.185 15.9984 11.3278 17.7442 10.9806C19.49 10.6333 21.2996 10.8115 22.9442 11.4927C24.5887 12.1739 25.9943 13.3274 26.9832 14.8075C27.9722 16.2875 28.5 18.0276 28.5 19.8076C28.4975 22.1938 27.5485 24.4815 25.8612 26.1688C24.1739 27.8561 21.8862 28.8051 19.5 28.8076ZM30.75 10.8076C30.305 10.8076 29.87 10.6757 29.5 10.4284C29.13 10.1812 28.8416 9.82979 28.6713 9.41866C28.501 9.00752 28.4564 8.55512 28.5432 8.11866C28.63 7.68221 28.8443 7.28129 29.159 6.96663C29.4737 6.65196 29.8746 6.43767 30.311 6.35085C30.7475 6.26403 31.1999 6.30859 31.611 6.47889C32.0222 6.64919 32.3736 6.93757 32.6208 7.30758C32.868 7.67759 33 8.11261 33 8.55762C33 9.15435 32.7629 9.72665 32.341 10.1486C31.919 10.5706 31.3467 10.8076 30.75 10.8076ZM25.5 19.8076C25.5 20.9943 25.1481 22.1543 24.4888 23.141C23.8295 24.1277 22.8925 24.8968 21.7961 25.3509C20.6997 25.805 19.4933 25.9238 18.3295 25.6923C17.1656 25.4608 16.0965 24.8894 15.2574 24.0503C14.4182 23.2111 13.8468 22.142 13.6153 20.9782C13.3838 19.8143 13.5026 18.6079 13.9567 17.5115C14.4108 16.4152 15.1799 15.4781 16.1666 14.8188C17.1533 14.1595 18.3133 13.8076 19.5 13.8076C21.0913 13.8076 22.6174 14.4398 23.7426 15.565C24.8679 16.6902 25.5 18.2163 25.5 19.8076Z" fill="black"/>
</svg>
