<svg width="50" height="40" viewBox="0 0 50 40" fill="none" xmlns="http://www.w3.org/2000/svg">
<rect width="50" height="40" fill="#F5F5F5"/>
<g id="320" clip-path="url(#clip0_261_155)">
<rect width="320" height="5503" transform="translate(-166 -5279)" fill="white"/>
<g id="7. &#208;&#154;&#208;&#190;&#208;&#189;&#209;&#130;&#208;&#176;&#208;&#186;&#209;&#130;&#209;&#139;">
<rect id="Rectangle 5" x="-166" y="-149" width="320" height="373" fill="#FFCE7D"/>
<g id="Frame 5">
<g id="Frame 5_2">
<g id="Icons">
<path id="Vector" d="M48.7344 6.75396C48.524 5.93108 48.1211 5.16999 47.5587 4.5335C46.9963 3.89701 46.2907 3.40335 45.5 3.09325C37.8482 0.137895 25.6696 0.164681 25 0.164681C24.3304 0.164681 12.1518 0.137895 4.5 3.09325C3.70929 3.40335 3.00365 3.89701 2.44128 4.5335C1.87892 5.16999 1.47595 5.93108 1.26562 6.75396C0.6875 8.98164 0 13.0531 0 19.8075C0 26.562 0.6875 30.6334 1.26562 32.8611C1.47564 33.6844 1.87846 34.4459 2.44084 35.0828C3.00323 35.7197 3.70904 36.2137 4.5 36.524C11.8304 39.3522 23.3036 39.4504 24.8527 39.4504H25.1473C26.6964 39.4504 38.1763 39.3522 45.5 36.524C46.291 36.2137 46.9968 35.7197 47.5592 35.0828C48.1215 34.4459 48.5244 33.6844 48.7344 32.8611C49.3125 30.629 50 26.562 50 19.8075C50 13.0531 49.3125 8.98164 48.7344 6.75396ZM32.6384 20.5508L21.9241 27.6937C21.7896 27.7834 21.6333 27.835 21.4718 27.8428C21.3103 27.8506 21.1497 27.8144 21.0072 27.7381C20.8646 27.6618 20.7455 27.5482 20.6624 27.4095C20.5794 27.2708 20.5356 27.1121 20.5357 26.9504V12.6647C20.5356 12.503 20.5794 12.3443 20.6624 12.2056C20.7455 12.0668 20.8646 11.9533 21.0072 11.877C21.1497 11.8006 21.3103 11.7645 21.4718 11.7723C21.6333 11.7801 21.7896 11.8316 21.9241 11.9214L32.6384 19.0642C32.7609 19.1457 32.8613 19.2562 32.9308 19.3859C33.0002 19.5156 33.0366 19.6604 33.0366 19.8075C33.0366 19.9546 33.0002 20.0995 32.9308 20.2292C32.8613 20.3588 32.7609 20.4693 32.6384 20.5508Z" fill="black"/>
</g>
</g>
</g>
</g>
</g>
<defs>
<clipPath id="clip0_261_155">
<rect width="320" height="5503" fill="white" transform="translate(-166 -5279)"/>
</clipPath>
</defs>
</svg>
